<svg xmlns="http://www.w3.org/2000/svg" viewBox="0 0 100 100" fill="none">
  <rect width="100" height="100" rx="22" fill="#241a3d"></rect>
  <g transform="translate(4,0)">
    <path d="M46 10 L48.9 19.1 L58 22 L48.9 24.9 L46 34 L43.1 24.9 L34 22 L43.1 19.1 Z" fill="#e8c877"></path>
    <path d="M28 44 L64 44 C72 45 77 50 76 56 C74 66 62 74 46 74 C30 74 18 66 16 56 C15 50 20 45 28 44 Z" fill="#d4a94e"></path>
    <path d="M21 48 C11 46 7 55 15 60" stroke="#e8c877" stroke-width="5" stroke-linecap="round" fill="none"></path>
    <path d="M63 47 C70 38 81 34 89 38 C83 39 77 43 74 49 C70 54 66 53 63 50 Z" fill="#e8c877"></path>
  </g>
</svg>